<svg width="248" height="179" viewBox="0 0 248 179" fill="none" xmlns="http://www.w3.org/2000/svg">
<g clip-path="url(#clip0)">
<path d="M167.086 164.386C155.543 164.413 144.011 163.741 132.571 162.373C132.198 162.331 131.819 162.283 131.443 162.233C128.635 161.878 125.825 161.472 123.094 161.026C110.802 159.026 99.2113 156.104 88.6427 152.342C53.4733 139.824 31.3606 142.488 19.0037 146.927C5.63084 151.732 0.490255 159.592 0.439869 159.671L0 159.449C0.0509997 159.369 5.25791 151.392 18.7768 146.524C26.7032 143.669 35.8986 142.422 46.1095 142.815C58.8553 143.306 73.2288 146.371 88.8307 151.924C99.3679 155.675 110.926 158.588 123.185 160.583C125.91 161.028 128.713 161.433 131.516 161.788C131.89 161.838 132.265 161.885 132.638 161.927C163.649 165.723 193.565 163.434 213.202 160.845C229.388 158.712 239.804 156.217 239.908 156.192L240.04 156.627C239.937 156.652 229.494 159.153 213.276 161.291C197.984 163.317 182.547 164.352 167.086 164.386Z" fill="#3F3D56"/>
<path d="M167.12 35.2143C158.205 35.2144 149.525 34.8431 141.15 34.1009C121.906 32.3955 104.24 28.7158 88.6427 23.1641C53.4732 10.6455 31.3606 13.3096 19.0037 17.7491C5.63084 22.5534 0.490255 30.414 0.439869 30.4928L0 30.2706C0.0509997 30.1906 5.25791 22.2132 18.7768 17.3453C26.7033 14.4911 35.8986 13.2432 46.1095 13.6368C58.8553 14.1279 73.2288 17.1927 88.8307 22.746C124.056 35.2842 163.253 35.7769 189.932 33.9839C218.849 32.0396 239.701 27.0638 239.908 27.0139L240.04 27.4481C239.833 27.4983 218.944 32.4837 189.981 34.4319C182.226 34.9536 174.59 35.2143 167.12 35.2143Z" fill="#3F3D56"/>
<path d="M165.811 2.17613C165.811 2.17613 155.868 -0.983923 149.475 11.6563C143.083 24.2965 133.14 38.2007 133.14 38.2007L138.822 39.4647C138.822 39.4647 140.242 30.6166 143.794 29.3526L142.373 40.7287C142.373 40.7287 184.987 54.0009 204.164 39.4647L203.453 35.0406C203.453 35.0406 206.294 35.6727 206.294 39.4647L208.425 37.5687C208.425 37.5687 206.294 33.7766 199.902 28.7205C195.707 25.402 194.265 19.0884 193.77 15.141C193.398 11.8449 191.916 8.72562 189.518 6.19218C185.27 1.81136 177.53 -2.84484 165.811 2.17613Z" fill="#2F2E41"/>
<path d="M226.16 73.7021C226.16 73.7021 244.871 87.9039 247.623 96.2291C250.375 104.554 237.167 105.534 237.167 105.534L208.55 107.982C208.55 107.982 207.999 119.735 203.046 121.205C198.093 122.674 202.041 101.769 202.041 101.769L230.012 94.7599L217.355 83.0067L226.16 73.7021Z" fill="#FBBEBE"/>
<path d="M138.657 88.3936L136.456 114.349L124.349 158.423C124.349 158.423 113.342 178.501 122.698 178.991C132.054 179.481 131.503 159.892 131.503 159.892L149.114 118.266L150.765 89.8628L138.657 88.3936Z" fill="#FBBEBE"/>
<path d="M169.476 42.8501C179.506 42.8501 187.637 35.6148 187.637 26.6895C187.637 17.7642 179.506 10.5289 169.476 10.5289C159.446 10.5289 151.315 17.7642 151.315 26.6895C151.315 35.6148 159.446 42.8501 169.476 42.8501Z" fill="#FBBEBE"/>
<path d="M161.221 34.5249C161.221 34.5249 167.825 55.5827 157.369 60.9696C146.912 66.3564 183.785 70.2742 193.691 54.1136C193.691 54.1136 176.08 48.7267 181.033 34.5249H161.221Z" fill="#FBBEBE"/>
<path d="M148.564 63.4182L145.262 62.4387C145.262 62.4387 138.658 64.8873 138.658 69.2947C138.658 73.7022 137.557 91.3319 137.557 91.3319L152.416 92.8011L148.564 63.4182Z" fill="#FF4747"/>
<path d="M213.239 161.068C192.924 163.746 163.313 165.909 132.606 162.15C132.603 161.88 132.603 161.617 132.603 161.36C132.603 159.832 132.669 158.322 132.8 156.828C134.374 138.437 145.021 123.104 149.141 117.791C149.348 117.521 149.54 117.278 149.712 117.062C150.377 116.231 150.764 115.792 150.764 115.792C150.764 115.792 182.683 115.329 199.193 121.205C199.989 121.502 200.718 121.926 201.343 122.456C207.499 127.511 211.115 143.921 213.239 161.068Z" fill="#2F2E41"/>
<path d="M201.395 56.5621C201.395 56.5621 208.549 53.1341 215.704 60.4799L230.012 75.1713L219.006 85.945L198.093 74.6816L201.395 56.5621Z" fill="#FF4747"/>
<path d="M149.852 26.792C156.281 22.6516 161.485 17.8828 164.928 12.21C164.928 12.21 176.726 23.8756 183.936 24.4588C191.147 25.0421 184.592 10.4602 184.592 10.4602L171.482 7.54376L159.028 8.71032L149.196 14.5431L149.852 26.792Z" fill="#2F2E41"/>
<path d="M190.939 53.1341C190.939 53.1341 183.237 63.9698 160.122 58.7968L147.005 62.0114L145.261 62.4387C145.261 62.4387 146.912 91.8216 151.315 97.2085C155.718 102.595 154.617 105.534 153.516 106.023C152.416 106.513 149.664 105.534 151.315 107.982C152.966 110.431 155.167 108.962 152.966 110.431C150.765 111.9 149.664 117.287 149.664 117.287L201.395 123.163C201.395 123.163 199.744 104.065 204.147 94.2702C208.549 84.4759 209.65 80.5582 209.65 80.5582L206.348 56.0724L190.939 53.1341Z" fill="#FF4747"/>
<path d="M83.4257 43.5471H12.6122V122.314H83.4257V43.5471Z" fill="#E6E6E6"/>
<path d="M32.7182 50.186H17.5439V59.188H32.7182V50.186Z" fill="white"/>
<path d="M76.3444 67.7399H17.6704V70.8906H76.3444V67.7399Z" fill="white"/>
<path d="M76.3444 76.0667H17.6704V79.2174H76.3444V76.0667Z" fill="white"/>
<path d="M76.3444 84.3936H17.6704V87.5442H76.3444V84.3936Z" fill="white"/>
<path d="M76.3444 92.7204H17.6704V95.8711H76.3444V92.7204Z" fill="white"/>
<path d="M76.3444 101.047H17.6704V104.198H76.3444V101.047Z" fill="white"/>
<path d="M97.3356 122.202C97.3324 125.174 96.1239 128.046 93.9321 130.289C91.7404 132.532 88.7126 133.996 85.405 134.412C82.0975 134.828 78.7325 134.167 75.9282 132.552C73.124 130.937 71.0689 128.476 70.1406 125.62C69.2122 122.765 69.473 119.708 70.875 117.01C72.277 114.312 74.726 112.155 77.7721 110.935C80.8182 109.715 84.2566 109.514 87.4557 110.369C90.6548 111.224 93.3997 113.078 95.1859 115.59C96.5906 117.569 97.336 119.861 97.3356 122.202Z" fill="#FF4747"/>
<path d="M95.1858 115.59L81.4936 127.772C80.633 126.586 75.8386 121.077 75.8386 121.077C76.4531 120.524 77.1087 120.009 77.8012 119.535L81.7768 124.252L93.5824 113.747C94.1811 114.315 94.718 114.932 95.1858 115.59Z" fill="white"/>
</g>
<defs>
<clipPath id="clip0">
<rect width="248" height="179" fill="white"/>
</clipPath>
</defs>
</svg>
