<svg width="253" height="196" viewBox="0 0 253 196" fill="none" xmlns="http://www.w3.org/2000/svg">
<g clip-path="url(#clip0)">
<path opacity="0.1" d="M246.848 113.621C246.848 113.77 246.848 113.919 246.848 114.065C246.821 116.633 246.66 119.194 246.367 121.749C246.368 121.764 246.368 121.78 246.367 121.795C246.344 122.007 246.318 122.217 246.292 122.43C246.248 122.788 246.202 123.145 246.151 123.504C245.55 127.871 244.558 132.182 243.183 136.388C241.341 142.073 238.737 147.51 235.435 152.566C234.419 154.111 233.337 155.608 232.189 157.054C231.576 157.821 230.951 158.57 230.305 159.307C229.852 159.823 229.39 160.331 228.92 160.83L228.626 161.138C226.152 163.713 223.486 166.116 220.647 168.328C216.014 171.97 211.025 175.138 205.957 178.076C205.669 178.245 205.378 178.411 205.087 178.565C205.067 178.579 205.045 178.591 205.023 178.601C198.134 182.55 190.991 186.114 183.632 188.967C175.575 192.099 167.256 194.376 158.721 195.372C146.823 196.758 134.782 195.63 122.957 193.692C113.122 192.09 103.407 189.889 93.8702 187.102L92.3001 186.636C91.4867 186.39 90.6741 186.14 89.8624 185.884C84.9598 184.347 80.112 182.638 75.3191 180.759C63.2816 176.058 51.782 170.203 40.9994 163.285C39.6266 162.41 38.2735 161.515 36.9401 160.601C35.0765 159.328 33.2352 158.018 31.4162 156.671L30.294 155.846C25.5337 152.312 21.0737 148.428 16.9553 144.23C11.4159 138.514 6.68227 132.066 3.57025 124.704C3.07947 123.548 2.62987 122.369 2.22146 121.168L2.18284 121.048C1.97692 120.438 1.78644 119.828 1.61141 119.193C1.354 118.285 1.12835 117.366 0.934435 116.435C0.89325 116.257 0.857213 116.079 0.823751 115.898C0.208526 112.766 -0.0631964 109.582 0.0129273 106.396C0.0773055 103.605 0.42207 100.827 1.04254 98.0978C1.67762 95.2689 2.65627 92.5194 3.95893 89.9042C5.13615 87.5525 6.63608 85.3588 8.41975 83.38C9.67312 81.9966 11.0827 80.7476 12.6232 79.6554C15.416 77.6833 18.5126 76.3092 21.7224 75.223C23.2308 74.7105 24.7598 74.2614 26.2965 73.844C27.3853 73.5462 28.4793 73.2631 29.5681 72.9849L32.7805 72.1623C34.8397 71.6302 36.8989 71.0835 38.9273 70.4928C44.4563 68.8917 49.8747 66.9537 54.8864 64.0639C55.6792 63.6075 56.4874 63.1071 57.2957 62.5701C58.3253 61.8916 59.3395 61.1545 60.3433 60.3588C61.3575 59.5534 62.3511 58.6918 63.2983 57.7789C63.445 57.6374 63.5892 57.4958 63.7333 57.3518C64.5055 56.5805 65.2546 55.7726 65.9496 54.933C66.2894 54.523 66.6188 54.1056 66.9329 53.6809C67.3679 53.0927 67.7797 52.4947 68.1607 51.8796C70.0706 48.8043 71.2495 45.4116 71.1105 41.8359C71.0902 41.2468 71.0344 40.6592 70.9432 40.0761C70.6086 37.921 70.2869 35.817 70.05 33.7595C69.0565 25.2486 69.476 17.5309 76.2123 10.2794C84.5882 1.26568 97.7339 -0.572205 109.701 0.147818C144.298 2.22246 175.794 20.9528 203.473 43.2516C205.867 45.1781 208.231 47.1307 210.567 49.1094C211.156 49.6073 211.745 50.1085 212.335 50.6129C216.711 54.3497 221.02 58.2256 225.033 62.3773C225.357 62.7141 225.682 63.051 226.001 63.3902C226.197 63.6001 226.395 63.8076 226.588 64.02C227.839 65.3624 229.053 66.7373 230.23 68.1448C233.384 71.8814 236.168 75.8848 238.549 80.1045C242.195 86.7268 244.663 93.8742 245.855 101.259C246.302 103.94 246.597 106.643 246.737 109.355C246.781 110.153 246.809 110.953 246.825 111.751C246.825 112.008 246.825 112.261 246.825 112.518C246.851 112.889 246.851 113.25 246.848 113.621Z" fill="#FF4747"/>
<path d="M101.412 109.526L97.2936 179.037L101.412 179.088L104.758 108.55L101.412 109.526Z" fill="#3F3D56"/>
<path d="M86.2252 144.744H35.2592V155.239H86.2252V144.744Z" fill="#FF4747"/>
<path d="M89.5714 154.017V160.607H36.9245C35.0609 159.334 33.2196 158.024 31.4006 156.677V154.017H89.5714Z" fill="#3F3D56"/>
<path d="M100.084 139.018C99.9397 139.65 99.7518 140.275 99.5536 140.897C98.9693 142.696 98.2665 144.471 98.1301 146.34C97.9474 148.81 98.6449 151.683 96.8431 153.477C96.3798 153.941 95.7749 154.287 95.3605 154.783C95.2966 154.861 95.2382 154.942 95.1854 155.027C94.8148 155.608 94.771 156.316 94.7659 156.98C94.7702 158.396 94.8673 159.81 95.0567 161.214C95.6668 166.047 96.8714 170.889 95.2884 175.451C95.0015 176.242 94.6672 177.017 94.2871 177.772C93.5149 179.383 92.6732 180.972 92.4209 182.717C92.2356 184.011 92.2922 185.344 92.2819 186.659C91.4685 186.414 90.656 186.163 89.8443 185.907C84.9416 184.37 80.0938 182.661 75.3009 180.782C75.3138 180.716 75.3267 180.648 75.337 180.582C75.7051 178.409 75.2006 176.188 74.5879 174.07C73.3009 169.581 71.4785 165.137 70.4 160.616C69.9656 158.851 69.6807 157.055 69.548 155.247C69.5171 154.842 69.4991 154.434 69.4965 154.026C69.4836 153.494 69.4965 152.962 69.5197 152.425C69.5737 151.354 69.6226 150.082 68.7191 149.43C68.2223 149.076 67.566 149.015 66.9868 148.801C65.8697 148.388 65.1052 147.431 64.2197 146.665C63.7973 146.276 63.2816 145.991 62.717 145.834C62.1524 145.677 61.5559 145.652 60.979 145.762C55.1925 147.019 50.9402 151.673 45.5553 154.026C45.3468 154.119 45.1383 154.207 44.9273 154.29C44.2307 154.532 43.5677 154.853 42.953 155.247C42.521 155.531 42.2077 155.95 42.0675 156.43C41.9311 156.948 42.0495 157.49 42.1164 158.022C42.2247 158.887 42.1856 159.763 42.0006 160.616C41.9308 160.947 41.8388 161.273 41.7251 161.593C41.5192 162.171 41.2438 162.737 40.9813 163.301C39.6084 162.426 38.2553 161.531 36.922 160.616C35.0584 159.344 33.2171 158.034 31.3981 156.687L30.2938 155.845C25.5335 152.31 21.0736 148.426 16.9551 144.229C17.5034 142.765 18.2962 141.403 18.6772 139.902C18.8934 139.04 18.9732 138.144 19.2718 137.307C19.6161 136.439 20.095 135.625 20.6926 134.891C22.8815 131.996 25.5542 129.46 28.6053 127.383C31.7945 125.216 35.4779 123.478 38.348 121.018C39.5127 120.051 40.5168 118.922 41.3262 117.671C41.3751 117.596 41.4214 117.515 41.4626 117.427C41.6866 116.985 41.8418 116.515 41.9234 116.031C42.1293 114.938 42.0984 113.737 42.2013 112.687C45.6976 113.261 49.262 113.363 52.7884 112.99C56.894 112.553 60.9095 111.472 65.0151 111.052C65.324 111.018 65.6354 110.991 65.9469 110.967C67.2622 110.866 68.5801 110.844 69.9006 110.859C71.0049 110.859 72.1091 110.905 73.2134 110.94L85.3706 111.33C86.7168 111.374 88.0914 111.423 89.3449 111.889C90.8327 112.443 92.0245 113.546 92.9795 114.759C93.1004 114.916 93.2214 115.072 93.3347 115.233C94.1205 116.32 94.7506 117.501 95.2086 118.745C95.2575 118.872 95.3038 118.989 95.3476 119.128C95.4634 119.468 95.5638 119.809 95.6539 120.156C95.7234 120.427 95.7852 120.698 95.8418 120.971C96.125 122.323 96.2923 123.705 96.7402 125.011C96.771 125.106 96.8045 125.201 96.8405 125.294C97.3785 126.724 98.2717 128.005 98.9461 129.38C99.4324 130.374 99.8035 131.416 100.053 132.487C100.557 134.637 100.568 136.864 100.084 139.018Z" fill="#35323E"/>
<path d="M63.1308 51.6708C62.0446 50.8507 60.4693 51.4511 59.1977 51.9808C58.1316 52.4273 57.0341 52.8032 55.9132 53.106C55.6838 53.1897 55.4351 53.2141 55.1925 53.1767C54.6777 53.0596 54.4615 52.4811 54.0779 52.1297C53.4112 51.5219 52.3198 51.6659 51.4601 51.9954C50.6004 52.3249 49.751 52.8009 48.8294 52.7276C47.8462 52.6544 46.9916 51.9661 45.998 51.9442C44.2477 51.9051 42.7779 53.9505 41.1228 53.4086C40.1137 53.0791 39.3209 51.8343 38.3274 52.1882C37.5551 52.4665 37.4856 53.4794 37.0197 54.1408C36.4715 54.9121 35.4032 55.1294 34.4895 55.4711C31.6091 56.5499 29.7017 59.5935 30.0775 62.5078C30.286 64.1162 31.1072 65.5904 31.6503 67.1257C33.2616 71.5898 32.7082 76.6251 34.7391 80.9306C34.9965 80.7011 35.1407 80.6157 35.3904 80.3887C34.7482 81.6516 34.6244 83.0958 35.0429 84.4404C35.2565 85.1165 35.604 85.7462 35.8666 86.4076C36.1393 87.1495 36.3595 87.9078 36.5255 88.6775L38.7649 98.0452C39.6401 101.706 40.5179 105.367 40.6697 109.116C40.7643 111.554 40.5674 113.994 40.0828 116.39C44.1395 115.753 47.8513 114.047 51.9621 114.069C53.4704 114.069 54.966 114.313 56.4615 114.508C60.8217 115.087 65.2199 115.37 69.6226 115.355C70.3073 115.392 70.993 115.301 71.6406 115.087C72.2069 114.857 72.6702 114.449 73.2056 114.154C74.2533 113.568 75.5223 113.422 76.7295 113.422C82.2354 113.327 87.5405 115.238 93.0103 115.911C95.1699 111.613 95.2986 106.463 93.6409 101.97C93.1493 100.635 92.4878 99.3339 92.2922 97.9304C92.2136 97.0677 92.193 96.2011 92.2304 95.3359C92.2218 93.1209 91.8009 90.9247 90.9871 88.8484C90.6679 88.0356 90.2844 87.2082 90.3179 86.3417C90.3513 85.4753 90.8018 84.6674 91.2445 83.901C92.1429 82.3389 93.0463 80.7622 94.3153 79.4442C95.6152 78.0822 97.242 77.0449 98.8508 76.0271L102.823 73.4985C102.279 70.2449 101.579 66.8181 100.125 63.8258C98.6706 60.8334 96.4956 58.0827 93.5534 56.3326C92.5615 55.7668 91.5234 55.2771 90.4491 54.8682C88.9459 54.2678 87.3809 53.7381 85.7515 53.6478C83.8982 53.5477 82.0732 54.0188 80.2431 54.3117C74.4824 55.2319 67.7023 55.1196 63.1308 51.6708Z" fill="#FF4747"/>
<path d="M106.56 108.13L104.671 110.393L101.108 114.657L96.9898 119.585L95.8392 120.961H93.6075L38.3454 121.022L3.73738 121.059H2.19296C1.98703 120.449 1.79655 119.839 1.62152 119.204C1.36411 118.296 1.13846 117.377 0.944546 116.446C0.903362 116.268 0.867325 116.09 0.833862 115.909L13.39 108.125L18.1108 108.101L32.5512 108.023L40.6157 107.979H42.088H43.0121L48.3867 107.952L89.35 107.73L91.4453 107.718H92.3539L94.7606 107.706L103.716 107.657L105.435 107.037L105.561 107.164L106.56 108.13Z" fill="#3F3D56"/>
<path d="M105.788 106.91L105.574 107.154L104.169 108.723L101.276 111.962L95.2087 118.745L41.4627 117.444L0.934374 116.468C0.893189 116.29 0.857152 116.112 0.82369 115.931C0.208465 112.799 -0.0632575 109.614 0.0128663 106.429L4.50714 104.247L5.53676 103.744L13.5498 99.8391L20.582 96.4221L38.9247 98.6822L42.9865 99.1825L44.8244 99.4071L47.5142 99.739L47.7407 99.7683L89.9216 104.955L94.5832 105.529L97.3194 105.865L105.752 106.905L105.788 106.91Z" fill="#504F60"/>
<path d="M97.0364 118.626L96.9926 119.585L96.7352 125.001L95.3504 154.778L95.0569 161.214L94.2847 177.772L93.8497 187.125L92.2795 186.659C91.4661 186.414 90.6536 186.163 89.8419 185.907L93.6077 120.983L93.6875 119.621L95.3452 119.133L97.0364 118.626Z" fill="#3F3D56"/>
<path d="M3.85608 118.555L3.74024 121.061L3.57036 124.723C3.07957 123.566 2.62997 122.387 2.22156 121.186L2.18295 121.066C1.97703 120.456 1.78655 119.846 1.61151 119.211L3.85608 118.555Z" fill="#3F3D56"/>
<path d="M71.1671 81.6506C77.7065 81.6506 83.0077 74.8755 83.0077 66.5179C83.0077 58.1604 77.7065 51.3852 71.1671 51.3852C64.6278 51.3852 59.3265 58.1604 59.3265 66.5179C59.3265 74.8755 64.6278 81.6506 71.1671 81.6506Z" fill="#A1616A"/>
<path opacity="0.1" d="M71.1671 81.6506C77.7065 81.6506 83.0077 74.8755 83.0077 66.5179C83.0077 58.1604 77.7065 51.3852 71.1671 51.3852C64.6278 51.3852 59.3265 58.1604 59.3265 66.5179C59.3265 74.8755 64.6278 81.6506 71.1671 81.6506Z" fill="black"/>
<path d="M72.8403 72.9859C81.9385 72.9859 89.3141 65.9922 89.3141 57.3651C89.3141 48.7379 81.9385 41.7442 72.8403 41.7442C63.742 41.7442 56.3664 48.7379 56.3664 57.3651C56.3664 65.9922 63.742 72.9859 72.8403 72.9859Z" fill="#A1616A"/>
<path d="M73.1672 33.2895C72.1614 33.3655 71.1627 33.5099 70.1787 33.7215C67.5738 34.3219 65.3215 35.6546 63.1284 36.9628C62.1451 37.551 61.1335 38.1637 60.5235 39.0277C59.4269 40.5776 59.8517 42.5497 59.2365 44.2704C58.9173 45.154 58.3304 45.9472 57.8336 46.7698C56.4668 49.025 55.7512 51.5024 55.0485 53.9553C54.9043 54.463 54.8632 55.1513 55.4475 55.3466C55.7839 55.4128 56.1339 55.3752 56.4462 55.2392C58.2918 54.6607 60.6367 54.4948 62.0061 55.6688C63.3755 56.8428 63.2597 58.9247 64.8891 59.818C66.7552 60.8505 69.6691 59.6033 71.3628 60.8212C72.0887 61.3435 72.3512 62.1807 72.9458 62.8104C74.3306 64.2749 76.9948 64.2041 79.211 63.9088C80.4826 63.7379 82.0425 63.6232 82.8147 64.4701C83.1853 64.8704 83.2909 65.4196 83.7207 65.7808C84.493 66.4349 85.9061 66.103 86.6603 65.4318C87.4145 64.7606 87.7749 63.8526 88.4029 63.0984C89.6256 61.634 91.7749 60.8358 93.0362 59.3885C94.0916 58.1681 94.4107 56.6402 94.699 55.166L95.7724 49.7011C96.2074 47.4849 96.6038 45.0637 95.2885 43.1111C94.82 42.4081 94.1482 41.8028 93.7441 41.0755C93.4738 40.5873 93.3219 40.0723 93.0079 39.611C92.6355 39.1305 92.1906 38.7045 91.6874 38.3467L89.1468 36.3526C88.2782 35.6317 87.3493 34.9787 86.3694 34.4C82.7426 32.3961 77.3114 32.9234 73.1672 33.2895Z" fill="#464353"/>
<path d="M18.9063 73.5278C18.2962 74.1428 17.7325 74.8067 17.0787 75.3827C16.5036 75.8677 15.9021 76.324 15.2769 76.7496C14.2678 77.4655 13.2811 78.2067 12.3167 78.9731C11.3106 79.7274 10.4001 80.5899 9.60369 81.5432C8.22915 83.2932 7.57792 85.4704 6.2909 87.279C5.15317 88.8826 3.54954 90.1493 2.3938 91.7407C1.88677 92.4098 1.51016 93.1595 1.28181 93.9545C1.11136 94.7238 1.03449 95.5092 1.05272 96.2952C1.02955 97.5839 1.00896 98.8872 1.28696 100.149C1.56496 101.411 2.175 102.651 3.22006 103.478C4.19048 104.247 5.44404 104.601 6.67185 104.894C7.30507 105.043 7.98976 105.182 8.59209 104.945C9.03284 104.734 9.41541 104.428 9.70922 104.052L12.8418 100.635C14.9371 98.3405 17.1147 95.9974 19.99 94.655C20.8909 94.2376 21.8407 93.9227 22.7442 93.5176C26.5743 91.7676 29.2822 88.1845 30.3324 84.2793C30.5899 83.325 30.7546 82.3511 30.9219 81.3772L31.3749 78.7071C31.4097 78.5732 31.4097 78.4333 31.3749 78.2995C31.304 78.1489 31.1898 78.0204 31.0455 77.9285C28.8635 76.2575 26.8205 74.4297 24.9347 72.4612C24.4868 71.9925 24.0672 71.3506 23.5498 70.9577C22.9012 70.4695 22.9501 70.5061 22.1702 70.9577C20.9704 71.678 19.8734 72.5418 18.9063 73.5278Z" fill="#A1616A"/>
<path d="M40.3354 91.2965C40.3093 91.2398 40.2715 91.1887 40.2241 91.1462C40.1767 91.1037 40.1207 91.0708 40.0595 91.0493C39.9984 91.0279 39.9333 91.0184 39.8681 91.0214C39.803 91.0244 39.7392 91.0399 39.6805 91.0669C39.6218 91.0939 39.5695 91.1319 39.5267 91.1785C39.4839 91.2252 39.4515 91.2795 39.4314 91.3383C39.4113 91.3972 39.4039 91.4592 39.4098 91.5208C39.4156 91.5824 39.4345 91.6423 39.4654 91.6967L39.2079 91.8163L46.8837 106.734L48.2711 106.092L40.5954 91.1647L40.3354 91.2965Z" fill="#3F3D56"/>
<path opacity="0.04" d="M18.9063 73.5278C18.2962 74.1428 17.7325 74.8067 17.0787 75.3827C16.5036 75.8677 15.9021 76.324 15.2769 76.7496C14.2678 77.4655 13.2811 78.2067 12.3167 78.9731C11.3106 79.7274 10.4001 80.5899 9.60369 81.5432C8.22915 83.2932 7.57792 85.4704 6.2909 87.279C5.15317 88.8826 3.54954 90.1493 2.3938 91.7407C1.88677 92.4098 1.51016 93.1595 1.28181 93.9545C1.11136 94.7238 1.03449 95.5092 1.05272 96.2952C1.02955 97.5839 1.00896 98.8872 1.28696 100.149C1.56496 101.411 2.175 102.651 3.22006 103.478C4.19048 104.247 5.44404 104.601 6.67185 104.894C7.30507 105.043 7.98976 105.182 8.59209 104.945C9.03284 104.734 9.41541 104.428 9.70922 104.052L12.8418 100.635C14.9371 98.3405 17.1147 95.9974 19.99 94.655C20.8909 94.2376 21.8407 93.9227 22.7442 93.5176C26.5743 91.7676 29.2822 88.1845 30.3324 84.2793C30.5899 83.325 30.7546 82.3511 30.9219 81.3772L31.3749 78.7071C31.4097 78.5732 31.4097 78.4333 31.3749 78.2995C31.304 78.1489 31.1898 78.0204 31.0455 77.9285C28.8635 76.2575 26.8205 74.4297 24.9347 72.4612C24.4868 71.9925 24.0672 71.3506 23.5498 70.9577C22.9012 70.4695 22.9501 70.5061 22.1702 70.9577C20.9704 71.678 19.8734 72.5418 18.9063 73.5278Z" fill="black"/>
<path d="M107.644 101.02C107.618 102.578 107.554 104.181 106.872 105.602C106.578 106.217 106.123 106.822 105.44 107.025C105.028 107.115 104.6 107.13 104.182 107.069C99.1317 106.648 94.043 107.031 89.1261 108.201C90.4389 105.712 89.6847 102.727 90.0476 99.9636C90.148 99.2094 90.3308 98.4674 90.4003 97.7108C90.6577 95.026 89.4453 92.4192 88.8893 89.7686C88.4067 87.4741 88.4067 85.1118 88.8893 82.8173C88.984 82.2267 89.1981 81.659 89.52 81.1454C89.897 80.6456 90.3925 80.2368 90.9666 79.9518C93.0516 78.8267 95.5098 78.6973 97.8521 78.8462C99.43 78.9462 102.594 78.8047 103.909 79.7249C105.348 80.7329 105.803 84.1182 106.192 85.6827C106.774 88.0822 107.17 90.5189 107.376 92.9733C107.628 95.6483 107.682 98.3356 107.644 101.02Z" fill="#A1616A"/>
<path d="M15.4391 106.424L24.7056 112.282L66.4051 110.818L38.8629 106.424H15.4391Z" fill="white"/>
<path d="M27.658 59.8815C26.1368 61.1531 24.8472 62.6518 23.4057 64.0064C21.4289 65.8662 19.1817 67.4478 16.9449 69.0221C17.7469 69.2347 18.4769 69.6411 19.0635 70.2016C19.6501 70.7621 20.0731 71.4574 20.2911 72.2195C20.389 72.5783 20.4379 72.9517 20.5485 73.3032C20.8059 74.1355 21.3722 74.8531 21.9797 75.4999C24.5898 78.2897 28.2424 80.3545 29.7816 83.7985C29.8319 83.966 29.9408 84.1124 30.0905 84.2134C30.2158 84.266 30.3549 84.2813 30.4895 84.2573C31.882 84.1182 32.9477 83.054 33.8357 82.0191C35.6891 79.8225 37.2978 77.3963 38.2116 74.7164C39.1254 72.0365 39.2721 69.0734 38.276 66.4178C37.7792 65.0949 37.0121 63.8795 36.2502 62.6762C35.5827 61.6234 34.9168 60.5722 34.2527 59.5227C33.9052 58.9687 33.4625 57.8435 32.7804 57.5701C31.308 56.9697 28.6027 58.9857 27.658 59.8815Z" fill="#FF4747"/>
<path d="M103.474 75.6561L105.665 80.5376C103.28 79.7475 100.731 79.507 98.2292 79.836C95.7272 80.1649 93.3436 81.0538 91.2757 82.4292C90.0273 83.2761 88.8818 84.3403 88.3181 85.6925C88.0399 85.7426 87.7523 85.7172 87.4887 85.6192C87.225 85.5212 86.9959 85.3545 86.8277 85.1384C86.4982 84.7002 86.3072 84.1821 86.2769 83.6447C86.0735 81.7702 86.8226 79.9323 87.5639 78.1798C87.9088 77.3597 88.264 76.5226 88.8767 75.8562C89.4893 75.1899 90.3027 74.7506 91.1161 74.3356C93.711 72.9748 96.4288 71.8362 99.2372 70.9332C100.421 70.5696 101.662 70.5769 102.326 71.6264C103.096 72.8785 102.872 74.3234 103.474 75.6561Z" fill="#FF4747"/>
<path d="M15.4933 90.3031C16.0416 90.718 16.5229 91.2086 17.0866 91.604C17.6828 91.9965 18.3172 92.3341 18.9811 92.612L21.5191 93.769C22.3056 94.1566 23.1286 94.4736 23.9774 94.716C25.0636 94.9918 26.2039 95.0186 27.2953 95.2749C28.6724 95.5971 29.9311 96.2683 31.2876 96.6564C32.6442 97.0444 34.2323 97.1079 35.3649 96.3C36.0728 95.7948 36.6082 94.96 37.4859 94.8356C38.0522 94.7648 38.5979 95.0235 39.1024 95.2749L45.7074 98.5675C46.598 99.0117 47.5401 99.5047 48.006 100.352C48.4719 101.199 48.1579 102.485 47.1772 102.705C46.8354 102.742 46.4916 102.761 46.1476 102.761C45.8078 102.8 45.4371 102.99 45.3908 103.315C45.3891 103.516 45.4451 103.715 45.553 103.888C45.849 104.533 45.9365 105.304 45.5916 105.929C45.2467 106.554 44.3998 106.942 43.7228 106.661C43.8387 107.606 42.755 108.267 41.7897 108.518C39.3547 109.151 36.7729 108.763 34.2838 108.362C33.3057 108.206 32.3121 108.045 31.4215 107.63C30.9942 107.432 30.5978 107.178 30.1654 106.995C28.9787 106.495 27.6299 106.561 26.3326 106.583C20.3325 106.683 14.3839 105.629 8.4842 104.579C7.39023 104.384 6.26537 104.176 5.331 103.603C3.52917 102.49 2.85992 100.205 3.15593 98.1843C3.45195 96.1633 4.53304 94.3328 5.59612 92.5559L6.97324 90.2543C7.15326 89.9017 7.40523 89.5864 7.71456 89.3268C9.74033 87.8599 13.7584 88.9802 15.4933 90.3031Z" fill="#A1616A"/>
<path opacity="0.04" d="M15.4933 90.3031C16.0416 90.718 16.5229 91.2086 17.0866 91.604C17.6828 91.9965 18.3172 92.3341 18.9811 92.612L21.5191 93.769C22.3056 94.1566 23.1286 94.4736 23.9774 94.716C25.0636 94.9918 26.2039 95.0186 27.2953 95.2749C28.6724 95.5971 29.9311 96.2683 31.2876 96.6564C32.6442 97.0444 34.2323 97.1079 35.3649 96.3C36.0728 95.7948 36.6082 94.96 37.4859 94.8356C38.0522 94.7648 38.5979 95.0235 39.1024 95.2749L45.7074 98.5675C46.598 99.0117 47.5401 99.5047 48.006 100.352C48.4719 101.199 48.1579 102.485 47.1772 102.705C46.8354 102.742 46.4916 102.761 46.1476 102.761C45.8078 102.8 45.4371 102.99 45.3908 103.315C45.3891 103.516 45.4451 103.715 45.553 103.888C45.849 104.533 45.9365 105.304 45.5916 105.929C45.2467 106.554 44.3998 106.942 43.7228 106.661C43.8387 107.606 42.755 108.267 41.7897 108.518C39.3547 109.151 36.7729 108.763 34.2838 108.362C33.3057 108.206 32.3121 108.045 31.4215 107.63C30.9942 107.432 30.5978 107.178 30.1654 106.995C28.9787 106.495 27.6299 106.561 26.3326 106.583C20.3325 106.683 14.3839 105.629 8.4842 104.579C7.39023 104.384 6.26537 104.176 5.331 103.603C3.52917 102.49 2.85992 100.205 3.15593 98.1843C3.45195 96.1633 4.53304 94.3328 5.59612 92.5559L6.97324 90.2543C7.15326 89.9017 7.40523 89.5864 7.71456 89.3268C9.74033 87.8599 13.7584 88.9802 15.4933 90.3031Z" fill="black"/>
<path d="M94.0685 94.5207C92.7274 95.1211 91.1882 95.1797 89.7879 95.641C88.3876 96.1023 87.1984 96.9322 85.9139 97.6082C82.5677 99.3802 78.7066 100.049 74.9151 100.686C72.6164 101.077 70.2818 101.467 67.9652 101.374C64.83 101.247 61.8183 100.256 58.781 99.5096C55.7436 98.7627 52.5029 98.2599 49.4938 99.0995C47.9225 99.5532 46.4861 100.352 45.301 101.43C44.1158 102.508 43.2154 103.836 42.6726 105.306C42.042 107.061 41.9545 108.953 42.0755 110.803C42.7087 111.245 43.5941 110.632 43.9391 109.961C44.284 109.29 44.4719 108.467 45.1411 108.077C46.302 108.45 46.5852 109.917 47.5427 110.642C48.1399 111.096 48.9378 111.215 49.6972 111.318L53.6097 111.845C54.5518 111.972 55.6458 112.058 56.3279 111.428C56.66 111.123 56.8427 110.696 57.1465 110.369C57.7694 109.714 58.8093 109.602 59.7359 109.69C62.6292 109.963 65.3422 111.743 68.2148 111.32C69.2033 111.176 70.1222 110.776 71.0643 110.461C76.6474 108.592 82.8508 109.729 88.6604 108.658C90.8767 108.25 93.0106 107.527 95.1187 106.766C96.2642 106.353 97.4225 105.921 98.4006 105.223C99.3273 104.548 100.058 103.66 100.524 102.644C100.991 101.627 101.178 100.515 101.067 99.412C100.852 97.7302 99.967 96.1901 98.5937 95.1065C98.1406 94.7404 97.546 94.0399 97.0029 93.8104C95.9656 93.3784 94.9488 94.1277 94.0685 94.5207Z" fill="#A1616A"/>
<g opacity="0.1">
<path opacity="0.1" d="M86.547 63.3401C86.1172 62.9788 86.0116 62.4297 85.641 62.0294C84.8687 61.1824 83.3089 61.2971 82.0373 61.468C79.821 61.7633 77.1466 61.8317 75.7721 60.3697C75.1775 59.7399 74.9149 58.9052 74.189 58.3804C72.4953 57.1601 69.5815 58.4097 67.7153 57.3773C66.086 56.4767 66.1915 54.3874 64.8324 53.228C63.4733 52.0686 61.1181 52.22 59.2725 52.7984C58.9602 52.9345 58.6102 52.9721 58.2737 52.9058C57.6894 52.7106 57.7306 52.0223 57.8748 51.5146C58.5775 49.0616 59.2931 46.5843 60.6599 44.329C61.1567 43.5065 61.7435 42.7132 62.0627 41.8297C62.6213 40.2822 62.3356 38.5322 63.0692 37.0677C62.2815 37.5559 61.5247 38.088 61.0383 38.7763C59.9417 40.3262 60.3664 42.2983 59.7512 44.019C59.432 44.9026 58.8452 45.6958 58.3484 46.5184C56.9816 48.7736 56.266 51.251 55.5633 53.7039C55.4191 54.2116 55.3779 54.8999 55.9622 55.0952C56.2987 55.1614 56.6487 55.1238 56.961 54.9878C58.8066 54.4093 61.1515 54.2434 62.5209 55.4174C63.8903 56.5914 63.7745 58.6733 65.4038 59.5667C67.27 60.5991 70.1838 59.3519 71.8776 60.5698C72.6034 61.0921 72.866 61.9293 73.4606 62.559C74.8454 64.0235 77.5096 63.9527 79.7258 63.6574C80.9974 63.4865 82.5573 63.3718 83.3295 64.2187C83.7001 64.619 83.8057 65.1682 84.2355 65.5294C85.0077 66.1835 86.4209 65.8516 87.1751 65.1804C87.6587 64.7029 88.0725 64.166 88.4055 63.5841C87.7362 63.777 87.0232 63.7477 86.547 63.3401Z" fill="black"/>
<path opacity="0.1" d="M91.2368 60.6552C91.071 60.8577 90.9172 61.0687 90.7761 61.2874C91.7645 60.6186 92.8121 59.9938 93.5509 59.142C93.7426 58.9215 93.9148 58.6864 94.0657 58.439C93.0386 59.1371 91.9678 59.779 91.2368 60.6552Z" fill="black"/>
</g>
<path d="M143.24 108.987L144.013 179.037L147.616 178.549L146.844 108.987H143.24Z" fill="#3F3D56"/>
<path d="M164.862 121.679L165.634 191.729L169.238 191.241L168.466 121.679H164.862Z" fill="#3F3D56"/>
<path d="M232.181 157.065L232.166 155.72V154.92L232.029 142.599L231.816 123.336L231.779 121.674H228.176L228.194 123.275L228.307 133.592L228.356 138.059L228.397 141.676L228.464 147.929L228.505 151.617V152.008L228.559 156.855L228.606 161.129L228.899 160.821C229.371 160.322 229.833 159.814 230.284 159.298L232.181 157.065Z" fill="#3F3D56"/>
<path d="M160.872 133.029L158.813 135.948L160.872 149.247L178.376 153.79H206.69L223.679 154.763L231.772 149.511L230.372 140.49L224.194 133.029H160.872Z" fill="#FF4747"/>
<path d="M158.813 135.948L157.784 144.056C157.784 144.056 152.378 159.953 195.88 158.979C239.381 158.005 231.916 154.761 231.916 154.761L231.659 145.354C231.659 145.354 233.175 149.806 211.066 149.203C188.958 148.601 168.337 146.653 168.337 146.653C168.337 146.653 160.615 147.949 158.813 135.948Z" fill="#3F3D56"/>
<path d="M195.056 63.2717C192.575 64.3432 190.695 66.4203 189.437 68.717C188.178 71.0138 187.47 73.5351 186.773 76.0393C186.036 78.6802 185.298 81.3284 184.917 84.0352C184.237 88.8484 184.747 93.9081 187.079 98.2307C189.411 102.553 193.72 106.041 198.765 106.873C200.714 107.198 202.716 107.132 204.685 106.939C208.245 106.582 211.751 105.849 215.139 104.755C218.678 103.62 222.361 101.872 223.937 98.6529C224.85 96.7857 224.928 94.6574 224.884 92.6023C224.762 87.001 223.87 81.4387 222.23 76.0564C221.754 74.4943 221.2 72.92 220.191 71.6044C219.182 70.2889 217.803 69.3248 216.395 68.4315C210.374 64.5873 202.461 60.0792 195.056 63.2717Z" fill="#FBBEBE"/>
<path opacity="0.05" d="M195.056 63.2717C192.575 64.3432 190.695 66.4203 189.437 68.717C188.178 71.0138 187.47 73.5351 186.773 76.0393C186.036 78.6802 185.298 81.3284 184.917 84.0352C184.237 88.8484 184.747 93.9081 187.079 98.2307C189.411 102.553 193.72 106.041 198.765 106.873C200.714 107.198 202.716 107.132 204.685 106.939C208.245 106.582 211.751 105.849 215.139 104.755C218.678 103.62 222.361 101.872 223.937 98.6529C224.85 96.7857 224.928 94.6574 224.884 92.6023C224.762 87.001 223.87 81.4387 222.23 76.0564C221.754 74.4943 221.2 72.92 220.191 71.6044C219.182 70.2889 217.803 69.3248 216.395 68.4315C210.374 64.5873 202.461 60.0792 195.056 63.2717Z" fill="black"/>
<path d="M192.268 93.9935C192.986 94.9296 193.855 95.7532 194.842 96.4343C197.293 98.0403 200.438 98.2575 203.414 98.3454C205.802 98.4137 208.541 98.2844 210.039 96.5172C210.714 95.7216 211.017 94.7062 211.29 93.7177C212.974 87.6478 214.17 81.4655 214.868 75.2241L221.684 75.2461C224.634 87.2228 224.392 99.6731 224.135 111.972L223.761 129.907L219.37 129.465C208.943 128.418 198.5 127.371 188.016 127.19C181.873 127.083 175.728 127.275 169.606 127.766L179.169 100.806C180.409 97.3007 181.663 93.7494 181.954 90.0663C182.373 84.7235 180.793 79.0829 182.983 74.1404C183.158 73.7426 183.38 73.3301 183.779 73.1226C184.178 72.9151 184.682 72.9664 185.14 73.0225C186.005 73.1324 188.649 73.0225 189.277 73.5473C190.204 74.3088 189.591 74.4235 189.264 75.6512C188.68 77.8479 188.126 79.8811 188.134 82.1705C188.142 86.3271 189.501 90.7156 192.268 93.9935Z" fill="#FF4747"/>
<path d="M232.181 157.065C233.329 155.62 234.411 154.124 235.427 152.577C234.912 151.532 234.346 150.512 233.895 149.445C233.206 147.81 232.809 146.077 232.418 144.356C232.284 143.77 232.151 143.184 232.019 142.599C230.578 136.226 229.224 129.763 228.943 123.302C228.917 122.765 228.901 122.228 228.894 121.691C228.894 121.613 228.894 121.537 228.894 121.447C228.894 120.859 228.894 120.271 228.894 119.685C228.925 118.22 229.023 116.744 229.2 115.274C229.234 114.986 229.272 114.698 229.314 114.41C229.314 114.347 229.329 114.286 229.339 114.222L246.843 113.617L248.315 113.566C249.327 113.532 250.398 113.478 251.232 112.934C252.634 112.021 252.799 110.149 252.776 108.54C252.691 104.475 252.205 100.426 251.324 96.4465C250.66 93.4541 249.713 90.3958 247.587 88.0966C245.842 86.2075 243.314 84.8334 242.405 82.4829C242.068 81.6091 241.983 80.6499 241.546 79.8152C241.108 78.9804 240.385 78.3678 239.703 77.7234C237.302 75.4678 235.31 72.852 233.808 69.9814C232.765 67.9897 231.635 65.793 230.274 64.4164C230.207 64.3456 230.14 64.2797 230.07 64.2163C228.912 63.1302 227.587 62.6542 226.016 63.3938C225.734 63.5281 225.465 63.6866 225.213 63.8673C224.654 64.2727 224.142 64.7342 223.687 65.2438C222.101 66.9731 220.709 68.8545 219.535 70.8576C218.709 72.2678 218 73.7367 217.414 75.2509C216.951 76.4473 216.569 77.6701 216.268 78.9121C216.047 79.8322 215.872 80.7622 215.733 81.6945C215.218 85.1995 215.218 88.7727 215.29 92.3216C215.368 95.5824 215.519 98.8506 215.831 102.099C215.908 102.885 215.994 103.67 216.088 104.455C216.277 106.005 216.51 107.551 216.788 109.092C216.899 109.68 217.012 110.268 217.138 110.854C217.169 111.01 217.203 111.167 217.236 111.32L217.252 111.386C217.592 112.748 217.856 114.126 218.042 115.514C218.063 115.688 218.078 115.861 218.088 116.034C218.132 116.831 218.125 117.631 218.068 118.428C218.008 119.37 217.916 120.31 217.87 121.252C217.87 121.418 217.87 121.581 217.851 121.74C217.839 122.216 217.851 122.692 217.851 123.168C217.904 124.307 218.047 125.44 218.279 126.558C218.713 128.638 219.463 130.647 220.505 132.523C220.603 132.699 220.704 132.872 220.804 133.043C222.109 135.254 223.756 137.283 224.964 139.545C226.005 141.581 226.783 143.729 227.28 145.943C227.452 146.673 227.615 147.405 227.769 148.139C228.009 149.311 228.222 150.492 228.441 151.673C228.462 151.791 228.485 151.918 228.508 152.025C228.799 153.592 229.105 155.152 229.499 156.682C229.728 157.573 229.986 158.451 230.287 159.315L232.181 157.065Z" fill="#464353"/>
<path d="M228.742 137.827C228.742 138.047 228.727 138.266 228.716 138.488C228.671 139.559 228.567 140.627 228.405 141.688C228.192 143.136 227.818 144.559 227.29 145.933C226.941 146.836 226.496 147.704 225.962 148.522C225.489 149.249 224.935 149.926 224.31 150.541C222.765 152.064 220.541 152.55 218.389 153.192C217.399 153.463 216.442 153.834 215.535 154.297C215.373 154.383 215.213 154.475 215.059 154.573L212.366 156.264C211.527 156.789 210.67 157.334 210.093 158.112C209.999 158.245 209.913 158.382 209.836 158.525C209.472 159.241 209.205 159.999 209.043 160.78C207.643 166.311 206.24 171.846 205.28 177.46C205.216 177.831 205.154 178.204 205.087 178.578L205.064 178.695C205.052 178.667 205.038 178.64 205.022 178.614C198.134 182.564 190.991 186.127 183.632 188.98L182.034 176.288C181.867 175.257 181.812 174.212 181.869 173.169C182.021 171.527 182.726 169.969 182.917 168.332C183.097 166.728 182.778 165.11 181.998 163.677C181.694 163.121 181.313 162.574 181.243 161.951C181.174 161.329 181.552 160.76 182.211 160.697C182.726 160.155 182.767 159.416 182.615 158.683C182.535 158.301 182.414 157.927 182.255 157.568C181.817 156.548 181.264 155.437 181.64 154.395C181.739 154.206 181.784 153.995 181.769 153.785C181.771 153.772 181.771 153.759 181.769 153.746C181.681 153.472 181.339 153.353 181.161 153.121C180.826 152.689 181.161 152.101 181.367 151.603C181.567 151.068 181.683 150.508 181.712 149.94C181.74 149.626 181.761 149.308 181.797 148.996C181.847 148.573 181.927 148.154 182.036 147.741C182.662 145.403 184.165 143.362 186.265 142.001C187.267 141.361 188.381 140.895 189.403 140.292C190.45 139.623 191.449 138.889 192.394 138.096C194.661 136.306 197.018 134.618 199.465 133.033C202.096 131.329 204.822 129.76 207.63 128.332C208.231 128.025 208.831 127.726 209.432 127.434C210.086 127.109 210.744 126.801 211.406 126.509C213.527 125.55 215.934 125.909 218.279 126.548C219.262 126.814 220.232 127.132 221.169 127.42C222.084 127.702 222.965 128.076 223.795 128.538C225.872 129.694 227.589 131.403 228.302 133.561C228.303 133.574 228.303 133.588 228.302 133.602C228.755 134.954 228.783 136.404 228.742 137.827Z" fill="#F86D70"/>
<path opacity="0.1" d="M228.742 137.827C228.742 138.047 228.727 138.266 228.716 138.488C228.671 139.559 228.567 140.627 228.405 141.688C228.192 143.136 227.818 144.559 227.29 145.933C226.941 146.836 226.496 147.704 225.962 148.522C225.489 149.249 224.935 149.926 224.31 150.541C222.765 152.064 220.541 152.55 218.389 153.192C217.399 153.463 216.442 153.834 215.535 154.297C215.373 154.383 215.213 154.475 215.059 154.573L212.366 156.264C211.527 156.789 210.67 157.334 210.093 158.112C209.999 158.245 209.913 158.382 209.836 158.525C209.472 159.241 209.205 159.999 209.043 160.78C207.643 166.311 206.24 171.846 205.28 177.46C205.216 177.831 205.154 178.204 205.087 178.578L205.064 178.695C205.052 178.667 205.038 178.64 205.022 178.614C198.134 182.564 190.991 186.127 183.632 188.98L182.034 176.288C181.867 175.257 181.812 174.212 181.869 173.169C182.021 171.527 182.726 169.969 182.917 168.332C183.097 166.728 182.778 165.11 181.998 163.677C181.694 163.121 181.313 162.574 181.243 161.951C181.174 161.329 181.552 160.76 182.211 160.697C182.726 160.155 182.767 159.416 182.615 158.683C182.535 158.301 182.414 157.927 182.255 157.568C181.817 156.548 181.264 155.437 181.64 154.395C181.739 154.206 181.784 153.995 181.769 153.785C181.771 153.772 181.771 153.759 181.769 153.746C181.681 153.472 181.339 153.353 181.161 153.121C180.826 152.689 181.161 152.101 181.367 151.603C181.567 151.068 181.683 150.508 181.712 149.94C181.74 149.626 181.761 149.308 181.797 148.996C181.847 148.573 181.927 148.154 182.036 147.741C182.662 145.403 184.165 143.362 186.265 142.001C187.267 141.361 188.381 140.895 189.403 140.292C190.45 139.623 191.449 138.889 192.394 138.096C194.661 136.306 197.018 134.618 199.465 133.033C202.096 131.329 204.822 129.76 207.63 128.332C208.231 128.025 208.831 127.726 209.432 127.434C210.086 127.109 210.744 126.801 211.406 126.509C213.527 125.55 215.934 125.909 218.279 126.548C219.262 126.814 220.232 127.132 221.169 127.42C222.084 127.702 222.965 128.076 223.795 128.538C225.872 129.694 227.589 131.403 228.302 133.561C228.303 133.574 228.303 133.588 228.302 133.602C228.755 134.954 228.783 136.404 228.742 137.827Z" fill="black"/>
<path d="M204.302 97.3984C204.276 97.3417 204.238 97.2905 204.19 97.2481C204.143 97.2056 204.087 97.1727 204.026 97.1512C203.965 97.1298 203.9 97.1203 203.835 97.1233C203.769 97.1263 203.706 97.1418 203.647 97.1688C203.588 97.1958 203.536 97.2338 203.493 97.2804C203.45 97.327 203.418 97.3814 203.398 97.4402C203.378 97.4991 203.37 97.5611 203.376 97.6227C203.382 97.6843 203.401 97.7442 203.432 97.7986L203.174 97.9182L210.85 112.836L212.238 112.194L204.562 97.2666L204.302 97.3984Z" fill="#3F3D56"/>
<path d="M213.898 81.7726C222.996 81.7726 230.372 74.7789 230.372 66.1518C230.372 57.5246 222.996 50.5309 213.898 50.5309C204.799 50.5309 197.424 57.5246 197.424 66.1518C197.424 74.7789 204.799 81.7726 213.898 81.7726Z" fill="#FBBEBE"/>
<path d="M235.641 56.4815C235.563 55.2398 235.369 54.0071 235.059 52.7984C234.091 48.8517 232.323 44.966 229.278 42.1323C229.09 41.4395 228.866 40.756 228.606 40.0845C228.601 40.0679 228.595 40.0516 228.588 40.0357C227.679 37.6701 226.366 35.4626 224.701 33.5018C223.736 32.3644 222.485 31.2417 220.945 31.1977C220.513 31.1831 220.055 31.2539 219.658 31.0659C219.367 30.8872 219.121 30.6486 218.94 30.3679C218.178 29.4545 217.167 28.756 216.016 28.3477C214.866 27.9395 213.62 27.8371 212.412 28.0516L212.253 28.0833C212.163 28.1004 212.073 28.1199 211.995 28.1419C211.918 28.1639 211.779 28.2005 211.671 28.2322C211.789 28.4177 211.905 28.6057 212.019 28.796C212.324 29.3118 212.607 29.839 212.868 30.3776C213.084 30.8267 213.284 31.2832 213.468 31.7469C210.832 32.0325 208.685 33.8069 206.724 35.4959L202.106 39.4695C202.098 39.4762 202.09 39.4835 202.083 39.4914L201.949 39.6135C201.915 39.6452 201.882 39.6769 201.851 39.7111C201.839 39.7213 201.827 39.7327 201.818 39.7453C201.779 39.7843 201.743 39.8258 201.707 39.8673C201.643 39.9442 201.585 40.0258 201.534 40.1114C201.509 40.148 201.487 40.1864 201.468 40.2261C201.46 40.2378 201.454 40.25 201.45 40.2627C201.433 40.296 201.418 40.3302 201.406 40.3652C201.405 40.37 201.405 40.375 201.406 40.3799C201.399 40.3999 201.393 40.4202 201.388 40.4409C201.335 40.6126 201.351 40.7967 201.432 40.9583L204.477 40.99H204.834C204.85 41.3757 204.863 41.7638 204.878 42.1494C204.395 42.4923 203.931 42.859 203.488 43.2477C203.005 43.6716 202.552 44.1249 202.132 44.6048C199.385 47.7509 197.951 51.8148 197.807 55.9055C197.807 56.0324 197.807 56.1496 197.807 56.2814C197.807 56.6548 197.807 57.0283 197.807 57.3993C197.807 57.6433 197.83 57.8874 197.851 58.1315C197.852 58.4494 197.941 58.7615 198.108 59.037C198.13 59.0678 198.154 59.0971 198.181 59.1249C198.335 59.2838 198.52 59.4131 198.726 59.5056L198.948 59.6081C199.058 59.6594 199.164 59.7082 199.267 59.7643C200.237 60.2842 200.811 61.2874 201.694 61.9317C201.746 61.9683 201.797 62.005 201.849 62.0367L201.964 62.1099L202.036 62.1538L202.134 62.2075C202.198 62.2442 202.265 62.2776 202.332 62.3076L202.456 62.3662H202.477C202.58 62.4101 202.683 62.4516 202.788 62.4882L202.935 62.537L202.979 62.5517C203.02 62.5639 203.063 62.5785 203.107 62.5883C203.195 62.6127 203.281 62.6347 203.365 62.6542L203.622 62.7079C203.722 62.725 203.825 62.7421 203.928 62.7543L204.08 62.7738L204.235 62.7884C204.48 62.8096 204.727 62.8218 204.976 62.8251C205.757 62.8205 206.537 62.7691 207.311 62.6713L213.88 61.9391C215.37 61.7755 216.891 61.612 218.361 61.9C219.607 62.1441 220.755 62.7055 221.965 63.1033C222.238 63.1936 222.51 63.2766 222.786 63.3474C222.886 63.3742 222.989 63.4035 223.092 63.4279L223.234 63.4621L223.563 63.5378C223.682 63.5646 223.8 63.5914 223.918 63.6134C224.086 63.6476 224.25 63.6769 224.418 63.7062C224.531 63.7281 224.647 63.7452 224.763 63.7647H224.786L225.115 63.8136H225.195L225.44 63.8453C225.558 63.8624 225.676 63.877 225.797 63.8892C226.06 63.9201 226.323 63.947 226.585 63.9698C227.01 64.0088 227.437 64.0381 227.872 64.0625L228.299 64.0869L228.727 64.1065L230.014 64.1601H230.07H230.251C230.786 64.1955 231.323 64.1693 231.852 64.082C231.944 64.065 232.034 64.0454 232.124 64.021C232.215 63.9966 232.289 63.9722 232.382 63.9429C233.347 63.5914 234.052 62.7836 234.541 61.9195C234.644 61.7365 234.74 61.5534 234.827 61.3655C234.915 61.1775 234.994 60.9872 235.067 60.7968C235.157 60.5527 235.234 60.3208 235.301 60.0768C235.321 60.0109 235.339 59.945 235.355 59.8766C235.37 59.8083 235.406 59.674 235.427 59.5715C235.491 59.2908 235.54 59.0077 235.576 58.7221C235.576 58.6318 235.599 58.5391 235.61 58.4488C235.633 58.2047 235.651 57.9777 235.661 57.7385C235.661 57.5579 235.661 57.3748 235.661 57.1918C235.659 56.9941 235.641 56.7329 235.641 56.4815ZM229.041 41.9102C228.832 41.7247 228.619 41.5465 228.402 41.3781C228.643 41.5221 228.858 41.7017 229.038 41.9102H229.041Z" fill="#464353"/>
<path d="M182.281 65.2927C180.343 65.0657 178.42 64.2602 176.507 64.6556C175.31 64.8997 174.281 65.6051 173.323 66.33C169.76 69.0382 166.73 72.3228 164.373 76.032C163.974 76.5866 163.693 77.2102 163.547 77.8674C163.423 78.6289 163.642 79.4027 163.902 80.1325C165.663 85.0652 169.429 89.1852 171.143 94.1326C172.945 99.3363 172.319 105.023 170.991 110.354C169.345 116.935 166.669 123.245 163.053 129.074C162.562 129.941 161.947 130.74 161.225 131.447C160.288 132.301 159.029 132.911 158.473 134.029C158.216 134.517 158.141 135.074 157.959 135.596C157.444 137.061 156.198 138.315 156.077 139.86C155.987 141.039 156.576 142.154 156.934 143.277C157.538 145.206 157.474 147.268 156.751 149.159C155.446 152.552 152.033 155.637 153.024 159.125C155.235 158.522 157.686 157.739 158.728 155.793C159.096 155.105 159.279 154.285 159.899 153.782C161.138 152.784 163.246 153.687 164.561 152.769C165.555 152.071 165.591 150.641 165.148 149.543C164.705 148.444 163.943 147.478 163.604 146.348C163.012 144.31 163.959 142.154 163.784 140.048C163.701 139.072 163.385 138.137 163.362 137.166C163.318 135.279 164.42 133.504 165.884 132.223C167.349 130.942 169.158 130.092 170.94 129.255L177.673 126.082C180.116 124.935 182.793 123.536 183.594 121.066C183.897 120.141 183.9 119.155 183.915 118.189C184.144 103.42 188.047 88.9485 191.926 74.6432C192.528 72.427 193.141 70.201 194.036 68.0727C194.932 65.9443 196.685 64.2358 197.578 62.2588C192.397 61.6828 187.663 65.9321 182.281 65.2927Z" fill="#464353"/>
<path d="M219.401 157.946C219.996 161.363 220.359 164.853 220.642 168.327C216.009 171.968 211.02 175.136 205.952 178.075C205.663 178.243 205.373 178.409 205.082 178.563L205.059 178.68C205.047 178.653 205.033 178.626 205.017 178.6C204.624 177.794 203.937 177.151 203.082 176.789C201.182 173.006 199.284 169.222 197.388 165.439C196.358 163.396 195.329 161.334 194.814 159.13C194.814 159.084 194.791 159.035 194.783 158.988C194.392 157.28 194.302 155.505 194.042 153.775C193.91 152.784 193.675 151.808 193.339 150.861C193.03 150.019 192.605 149.201 192.23 148.378C191.766 147.363 191.378 146.335 191.36 145.24C191.36 144.891 191.383 144.507 191.203 144.214C191.01 143.962 190.772 143.744 190.5 143.57C190.16 143.284 189.902 142.922 189.751 142.515C189.6 142.109 189.56 141.674 189.635 141.249C188.091 141.325 187.22 142.899 186.6 144.234C186.036 145.54 185.295 146.77 184.397 147.895C183.742 148.699 182.909 149.356 181.957 149.821C181.872 149.86 181.787 149.899 181.699 149.933C179.55 150.831 177.04 150.514 174.711 150.109C172.675 149.755 170.569 149.316 168.932 148.115L168.757 147.983C168.272 147.601 167.84 147.163 167.47 146.68C166.098 144.903 165.49 142.562 165.153 140.334C165.122 140.124 165.091 139.914 165.063 139.704C164.829 138.129 164.764 136.536 164.87 134.949C164.901 134.559 164.945 134.168 164.999 133.78C165.035 133.536 165.073 133.273 165.117 133.019C165.116 133.011 165.116 133.004 165.117 132.997C165.184 132.594 165.256 132.189 165.328 131.776C165.586 130.392 165.843 128.972 166.615 127.781C167.123 127.04 167.765 126.389 168.51 125.858C168.788 125.65 169.073 125.452 169.362 125.262C169.83 124.954 170.312 124.662 170.801 124.386C172.031 123.687 173.323 123.091 174.662 122.604C174.981 122.487 175.305 122.377 175.63 122.272C176.89 121.847 178.247 121.745 179.563 121.977C180.728 122.137 181.907 122.202 183.084 122.172C186.103 122.116 189.136 121.569 192.15 121.215C196.335 120.727 200.832 120.668 204.482 122.68C204.657 122.775 204.827 122.875 204.997 122.98C206.799 124.098 208.25 125.665 209.422 127.415C209.679 127.783 209.903 128.162 210.124 128.545C210.635 129.424 211.096 130.329 211.507 131.254C211.75 131.708 211.881 132.209 211.89 132.719C211.884 132.815 211.87 132.912 211.849 133.007C211.779 133.353 211.64 133.69 211.592 134.041C211.429 135.372 212.621 136.482 213.066 137.749C213.355 138.574 213.324 139.457 213.486 140.326C213.72 141.547 214.351 142.645 214.917 143.743C215.812 145.511 216.577 147.336 217.208 149.203C217.656 150.504 218.039 151.825 218.377 153.157C218.487 153.585 218.59 154.014 218.688 154.444C218.969 155.625 219.198 156.782 219.401 157.946Z" fill="#F86D70"/>
<path d="M246.845 121.801V123.51L246.513 123.505L246.143 123.5L242.004 123.451L231.805 123.324L228.943 123.29L228.202 123.28L223.906 123.229L217.851 123.153L205.007 122.995L182.718 122.721L174.674 122.624L171.447 122.585L168.476 122.548L166.625 122.523L164.873 122.502L151.876 122.343L148.273 122.299L147.487 122.289L146.978 121.042L143.274 111.984L142.597 110.329L143.112 108.377L145.428 109.841L146.854 110.01L170.332 112.778L174.739 113.297L184.083 114.401L193.236 115.479L196.824 115.902L218.057 118.406L223.991 119.106L228.902 119.685L246.364 121.745L246.845 121.801Z" fill="#3F3D56"/>
<path d="M143.112 108.377L147.745 119.848L246.845 121.801V109.353L143.112 108.377Z" fill="#504F60"/>
<path d="M148.26 121.069L149.032 191.118L152.636 190.63L151.863 121.069H148.26Z" fill="#3F3D56"/>
<path d="M246.513 123.502H246.143C245.543 127.87 244.55 132.18 243.175 136.387L242.004 123.451L241.955 122.899L246.284 122.426L246.428 122.411L246.513 123.502Z" fill="#3F3D56"/>
<path d="M232.431 115.211L194.721 115.943L183.009 112.282L214.413 110.574L232.431 115.211Z" fill="white"/>
<path d="M185.127 100.977C184.728 101.122 184.373 101.361 184.098 101.672C183.882 102.009 183.751 102.388 183.714 102.78L183.081 106.361C182.985 106.688 183.002 107.037 183.13 107.354C183.295 107.654 183.774 107.811 184.013 107.562C183.982 108.262 184.046 109.009 184.476 109.58C184.906 110.151 185.807 110.452 186.415 110.054C186.51 110.201 186.638 110.327 186.789 110.422C186.941 110.518 187.113 110.581 187.293 110.608C187.473 110.634 187.656 110.623 187.832 110.576C188.007 110.528 188.169 110.445 188.306 110.332C187.941 110.449 187.915 110.979 188.175 111.247C188.466 111.491 188.837 111.631 189.225 111.645C193.749 112.25 198.36 111.699 202.585 110.051C202.984 109.895 201.933 105.231 201.828 104.752C201.57 103.627 201.442 102.253 200.44 101.496C198.047 99.6854 193.794 99.329 190.878 99.5438C188.885 99.6867 186.937 100.172 185.127 100.977Z" fill="#FBBEBE"/>
<path opacity="0.1" d="M223.496 101.518C214.186 101.687 204.683 101.831 195.797 99.1875C196.646 102.306 196.587 105.585 195.627 108.675L239.159 112.092C241.005 112.236 248.658 113.056 250.457 112.643C252.256 112.231 235.36 106.954 236.042 105.321C237.919 100.823 244.205 98.1867 239.677 98.0183C233.962 97.8035 229.254 101.416 223.496 101.518Z" fill="black"/>
<path d="M223.754 102.006C214.443 102.175 204.94 102.319 196.054 99.6756C196.903 102.794 196.845 106.073 195.885 109.163L239.417 112.58C241.262 112.724 248.915 113.556 250.714 113.131C252.514 112.707 252.091 110.615 252.773 108.982C254.65 104.484 244.462 98.6748 239.934 98.5064C234.22 98.2916 229.512 101.904 223.754 102.006Z" fill="#464353"/>
<path d="M208.95 102.685C209.35 102.83 209.705 103.07 209.98 103.381C210.195 103.718 210.327 104.097 210.366 104.489L210.999 108.069C211.095 108.397 211.078 108.745 210.95 109.063C210.786 109.363 210.304 109.519 210.068 109.27C210.096 109.971 210.034 110.718 209.604 111.289C209.174 111.86 208.273 112.16 207.663 111.762C207.568 111.909 207.44 112.035 207.289 112.131C207.137 112.227 206.965 112.29 206.785 112.316C206.605 112.343 206.421 112.332 206.246 112.284C206.071 112.237 205.909 112.153 205.771 112.04C206.137 112.158 206.165 112.687 205.905 112.956C205.613 113.199 205.241 113.34 204.853 113.354C200.33 113.958 195.719 113.408 191.496 111.76C191.097 111.604 192.144 106.939 192.253 106.461C192.51 105.336 192.639 103.962 193.64 103.205C196.031 101.394 200.286 101.038 203.203 101.252C205.194 101.396 207.142 101.881 208.95 102.685Z" fill="#FBBEBE"/>
<path d="M147.431 94.9112C146.576 95.9559 145.719 97.0225 145.168 98.2404C144.116 100.564 144.27 103.195 144.445 105.719C144.494 106.451 144.556 107.198 144.96 107.806C145.309 108.265 145.77 108.637 146.304 108.892C148.533 110.093 151.143 110.451 153.691 110.72C157.593 111.13 161.509 111.38 165.439 111.469C175.174 111.694 185.058 110.94 194.541 113.031C193.367 111.34 193.37 109.102 194.026 107.174C194.683 105.245 195.947 103.566 197.185 101.914C192.845 100.61 188.191 102.646 183.645 102.443C178.978 102.236 174.659 99.678 169.987 99.6804C168.983 99.6804 167.962 99.8 166.986 99.5706C166.01 99.3412 165.066 98.6431 164.976 97.6937C166.221 97.9597 167.403 96.9492 167.918 95.8411C168.433 94.733 168.525 93.4809 169.025 92.3655C170.268 89.5904 173.627 88.3041 175.717 86.0195C176.047 85.6583 176.358 85.2312 176.348 84.7528C176.299 84.3475 176.119 83.9665 175.833 83.6618C174.095 81.4651 171.478 80.2447 169.303 78.5362C168.546 77.9406 167.019 75.6951 166.17 75.4877C164.595 75.1045 163.259 77.2621 162.234 78.3141C157.062 83.6431 152.128 89.1754 147.431 94.9112Z" fill="#464353"/>
<path opacity="0.07" d="M199.19 94.2913C199.842 94.7501 200.422 95.295 200.912 95.9095C201.156 96.2181 201.33 96.5714 201.422 96.947C201.515 97.3226 201.524 97.7123 201.45 98.0915C201.37 97.3841 201.536 96.6713 201.923 96.0619C202.31 95.4524 202.897 94.9798 203.594 94.716L199.19 94.2913Z" fill="black"/>
<g opacity="0.1">
<path opacity="0.1" d="M213.465 30.2849C213.162 29.522 212.813 28.7764 212.42 28.0516C212.166 28.0979 211.915 28.1591 211.668 28.2347C212.11 28.9302 212.508 29.6499 212.86 30.3898C213.058 30.341 213.259 30.3069 213.465 30.2849Z" fill="black"/>
<path opacity="0.1" d="M228.4 39.9088C228.469 39.9625 228.536 40.0235 228.603 40.0796C228.598 40.0638 228.592 40.0483 228.585 40.0333C228.527 39.9926 228.465 39.9511 228.4 39.9088Z" fill="black"/>
<path opacity="0.1" d="M204.472 40.9827C204.606 40.8827 204.729 40.7777 204.873 40.6801L204.832 39.5207L202.083 39.4939C201.638 39.8819 201.164 40.4384 201.427 40.9583L204.472 40.9827Z" fill="black"/>
<path opacity="0.1" d="M234.526 60.499C234.037 61.363 233.332 62.1734 232.366 62.5224C231.623 62.7909 230.804 62.7665 230.009 62.7323C227.296 62.6273 224.536 62.5126 221.972 61.6608C220.773 61.2605 219.625 60.7016 218.369 60.4551C216.899 60.1671 215.378 60.3306 213.887 60.4966L207.318 61.2288C205.38 61.4436 203.221 61.6047 201.674 60.477C200.788 59.8327 200.217 58.8295 199.246 58.3121C198.837 58.0924 198.35 57.9508 198.085 57.5798C197.918 57.3044 197.829 56.9923 197.828 56.6743C197.807 56.418 197.794 56.1618 197.784 55.9055C197.756 56.6501 197.771 57.3956 197.828 58.1388C197.829 58.4567 197.918 58.7688 198.085 59.0443C198.343 59.4129 198.837 59.5544 199.246 59.7765C200.217 60.294 200.791 61.2971 201.674 61.9415C203.218 63.0691 205.38 62.9178 207.318 62.6932L213.887 61.961C215.378 61.795 216.899 61.6315 218.369 61.9195C219.615 62.1636 220.763 62.725 221.972 63.1253C224.547 63.9771 227.296 64.1016 230.009 64.1968C230.804 64.2285 231.623 64.2553 232.366 63.9868C233.332 63.6378 234.037 62.8275 234.526 61.9635C235.473 60.2915 235.738 58.3951 235.638 56.4839C235.583 57.8835 235.203 59.2543 234.526 60.499Z" fill="black"/>
</g>
<path opacity="0.1" d="M213.391 31.8543L216.994 35.0273C216.994 35.0273 213.906 33.8069 213.391 31.8543Z" fill="black"/>
</g>
<defs>
<clipPath id="clip0">
<rect width="253" height="196" fill="white"/>
</clipPath>
</defs>
</svg>
